<svg width="170" height="107" viewBox="0 0 170 107" fill="none" xmlns="http://www.w3.org/2000/svg">
<path d="M10.544 27.4813C9.11331 27.4813 7.73815 27.2593 6.41848 26.8153C5.11115 26.3589 3.96415 25.7114 2.97748 24.8728C1.99081 24.0218 1.28165 23.0042 0.84998 21.8202L5.08648 20.2663C5.25915 20.7596 5.61065 21.2098 6.14098 21.6168C6.67131 22.0238 7.31881 22.3506 8.08348 22.5972C8.84815 22.8439 9.66831 22.9673 10.544 22.9673C11.4443 22.9673 12.283 22.8316 13.06 22.5602C13.8493 22.2766 14.4845 21.8881 14.9655 21.3948C15.4465 20.8891 15.687 20.3032 15.687 19.6372C15.687 18.9589 15.4341 18.4039 14.9285 17.9722C14.4228 17.5282 13.7753 17.1767 12.986 16.9177C12.1966 16.6587 11.3826 16.4614 10.544 16.3258C8.70631 16.0421 7.05981 15.6043 5.60448 15.0123C4.14915 14.4203 2.99598 13.6001 2.14498 12.5518C1.30631 11.5034 0.88698 10.1467 0.88698 8.48175C0.88698 6.91542 1.33715 5.54642 2.23748 4.37475C3.13781 3.20308 4.32181 2.29042 5.78948 1.63675C7.25715 0.983083 8.84198 0.65625 10.544 0.65625C11.9623 0.65625 13.3313 0.87825 14.651 1.32225C15.9706 1.76625 17.1238 2.41375 18.1105 3.26475C19.1095 4.11575 19.8248 5.13942 20.2565 6.33575L16.0015 7.87125C15.8288 7.37792 15.4773 6.92775 14.947 6.52075C14.4166 6.11375 13.7691 5.79308 13.0045 5.55875C12.2398 5.31208 11.4196 5.18875 10.544 5.18875C9.66831 5.17642 8.83581 5.31825 8.04648 5.61425C7.26948 5.89792 6.63431 6.28642 6.14098 6.77975C5.64765 7.27308 5.40098 7.84042 5.40098 8.48175C5.40098 9.30808 5.62915 9.93092 6.08548 10.3503C6.55415 10.7696 7.17698 11.0779 7.95398 11.2753C8.73098 11.4603 9.59431 11.6329 10.544 11.7933C12.2706 12.0646 13.8678 12.5209 15.3355 13.1622C16.8031 13.8036 17.981 14.6608 18.869 15.7338C19.757 16.7944 20.201 18.0956 20.201 19.6372C20.201 21.2036 19.757 22.5788 18.869 23.7628C17.981 24.9344 16.8031 25.8471 15.3355 26.5007C13.8678 27.1544 12.2706 27.4813 10.544 27.4813Z" fill="white"/>
<path d="M33.7913 13.0142H30.2023V27.0002H25.6883V13.0142H22.9503V8.50025H25.6883V2.69125H30.2023V8.50025H33.7913V13.0142Z" fill="white"/>
<path d="M37.1545 27.0002L37.136 8.50025H41.65L41.6685 10.1467C42.2975 9.48075 43.0498 8.95658 43.9255 8.57425C44.8012 8.17958 45.7447 7.98225 46.756 7.98225C47.4343 7.98225 48.1127 8.08092 48.791 8.27825L47.015 12.8293C46.5463 12.6443 46.0777 12.5518 45.609 12.5518C44.8813 12.5518 44.2153 12.7306 43.611 13.0883C43.019 13.4336 42.5442 13.9084 42.1865 14.5128C41.8412 15.1048 41.6685 15.7646 41.6685 16.4923V27.0002H37.1545Z" fill="white"/>
<path d="M63.9483 8.50025H68.4623V27.0002H63.9483L63.7448 24.7063C63.2391 25.5326 62.5669 26.2047 61.7283 26.7227C60.9019 27.2284 59.9214 27.4813 58.7868 27.4813C57.4178 27.4813 56.1351 27.2223 54.9388 26.7043C53.7424 26.1863 52.6879 25.4709 51.7753 24.5583C50.8749 23.6456 50.1658 22.5911 49.6478 21.3948C49.1421 20.1984 48.8893 18.9157 48.8893 17.5467C48.8893 16.2271 49.1298 14.9876 49.6108 13.8282C50.1041 12.6689 50.7886 11.6514 51.6643 10.7758C52.5399 9.90008 53.5513 9.21558 54.6983 8.72225C55.8453 8.22892 57.0786 7.98225 58.3983 7.98225C59.6193 7.98225 60.7108 8.25358 61.6728 8.79625C62.6471 9.33892 63.4734 10.0296 64.1518 10.8682L63.9483 8.50025ZM58.6758 23.1338C59.6378 23.1338 60.4888 22.8933 61.2288 22.4123C61.9688 21.9313 62.5484 21.2837 62.9678 20.4697C63.3871 19.6434 63.5968 18.7369 63.5968 17.7502C63.5968 16.7512 63.3871 15.8448 62.9678 15.0308C62.5484 14.2044 61.9626 13.5507 61.2103 13.0697C60.4703 12.5887 59.6254 12.3482 58.6758 12.3482C57.7261 12.3482 56.8566 12.5949 56.0673 13.0883C55.2903 13.5692 54.6674 14.2167 54.1988 15.0308C53.7424 15.8448 53.5143 16.7512 53.5143 17.7502C53.5143 18.7492 53.7486 19.6557 54.2173 20.4697C54.6859 21.2837 55.3088 21.9313 56.0858 22.4123C56.8751 22.8933 57.7384 23.1338 58.6758 23.1338Z" fill="white"/>
<path d="M82.0647 13.0142H78.4757V27.0002H73.9617V13.0142H71.2237V8.50025H73.9617V2.69125H78.4757V8.50025H82.0647V13.0142Z" fill="white"/>
<path d="M93.1158 27.4813C91.4138 27.4813 89.8598 27.0434 88.4538 26.1678C87.0602 25.2921 85.944 24.1143 85.1053 22.6343C84.279 21.1543 83.8658 19.5201 83.8658 17.7318C83.8658 16.3874 84.1063 15.1294 84.5873 13.9577C85.0683 12.7737 85.7282 11.7377 86.5668 10.8497C87.4178 9.94942 88.4045 9.24642 89.5268 8.74075C90.6492 8.23508 91.8455 7.98225 93.1158 7.98225C94.5588 7.98225 95.8785 8.29058 97.0748 8.90725C98.2835 9.51158 99.3072 10.3441 100.146 11.4047C100.985 12.4654 101.595 13.6741 101.977 15.0308C102.36 16.3874 102.446 17.8057 102.236 19.2857H88.7128C88.8855 19.9764 89.1692 20.5993 89.5638 21.1543C89.9585 21.6969 90.458 22.1348 91.0623 22.4678C91.6667 22.7884 92.3512 22.9549 93.1158 22.9673C93.9052 22.9796 94.6205 22.7946 95.2618 22.4123C95.9155 22.0176 96.4582 21.4873 96.8898 20.8213L101.496 21.8943C100.744 23.5346 99.6217 24.8789 98.1293 25.9272C96.637 26.9632 94.9658 27.4813 93.1158 27.4813ZM88.5648 15.9003H97.6668C97.5312 15.1603 97.2413 14.4942 96.7973 13.9023C96.3657 13.2979 95.8292 12.8169 95.1878 12.4593C94.5465 12.1016 93.8558 11.9227 93.1158 11.9227C92.3758 11.9227 91.6913 12.1016 91.0623 12.4593C90.4333 12.8046 89.8968 13.2794 89.4528 13.8837C89.0212 14.4758 88.7252 15.1479 88.5648 15.9003Z" fill="white"/>
<path d="M119.046 8.50025H123.56V27.3518C123.56 28.6838 123.288 29.8924 122.746 30.9778C122.203 32.0754 121.463 33.0127 120.526 33.7897C119.588 34.5791 118.515 35.1834 117.307 35.6028C116.098 36.0344 114.828 36.2503 113.496 36.2503C112.201 36.2503 110.955 35.9851 109.759 35.4548C108.562 34.9244 107.502 34.1968 106.577 33.2718C105.664 32.3591 104.967 31.3169 104.486 30.1453L108.612 28.2768C108.858 28.9551 109.228 29.5471 109.722 30.0527C110.227 30.5707 110.807 30.9716 111.461 31.2553C112.114 31.5513 112.793 31.6993 113.496 31.6993C114.211 31.6993 114.895 31.6006 115.549 31.4032C116.215 31.2059 116.813 30.9161 117.344 30.5338C117.874 30.1638 118.287 29.7074 118.583 29.1648C118.891 28.6344 119.046 28.0301 119.046 27.3518V24.7432C118.466 25.5572 117.738 26.2171 116.863 26.7227C115.987 27.2284 114.976 27.4813 113.829 27.4813C112.497 27.4813 111.251 27.2284 110.092 26.7227C108.932 26.2171 107.909 25.5202 107.021 24.6322C106.145 23.7319 105.454 22.6959 104.949 21.5243C104.455 20.3526 104.209 19.0946 104.209 17.7502C104.209 16.4059 104.455 15.1479 104.949 13.9762C105.454 12.8046 106.145 11.7747 107.021 10.8867C107.909 9.98642 108.932 9.28342 110.092 8.77775C111.251 8.27208 112.497 8.01925 113.829 8.01925C114.976 8.01925 115.987 8.27208 116.863 8.77775C117.738 9.27108 118.466 9.92475 119.046 10.7387V8.50025ZM113.884 23.1338C114.834 23.1338 115.672 22.8933 116.4 22.4123C117.14 21.9189 117.72 21.2652 118.139 20.4513C118.558 19.6249 118.768 18.7246 118.768 17.7502C118.768 16.7636 118.552 15.8632 118.121 15.0492C117.701 14.2352 117.122 13.5816 116.382 13.0883C115.654 12.5949 114.821 12.3482 113.884 12.3482C112.959 12.3482 112.114 12.5949 111.35 13.0883C110.585 13.5692 109.974 14.2167 109.518 15.0308C109.062 15.8448 108.834 16.7512 108.834 17.7502C108.834 18.7492 109.062 19.6557 109.518 20.4697C109.974 21.2837 110.585 21.9313 111.35 22.4123C112.114 22.8933 112.959 23.1338 113.884 23.1338Z" fill="white"/>
<path d="M139.545 8.50025H144.336L134.217 36.2503H129.425L132.774 27.0002L126.114 8.50025H131.053L135.031 20.8213L139.545 8.50025Z" fill="white"/>
<path d="M13.208 62.4813C11.4566 62.4813 9.81015 62.1359 8.26848 61.4453C6.72681 60.7423 5.37015 59.7741 4.19848 58.5407C3.03915 57.3074 2.12648 55.8829 1.46048 54.2673C0.806814 52.6393 0.47998 50.9003 0.47998 49.0503C0.47998 47.1879 0.806814 45.4489 1.46048 43.8332C2.12648 42.2052 3.03915 40.7807 4.19848 39.5597C5.37015 38.3264 6.72681 37.3644 8.26848 36.6737C9.81015 35.9707 11.4566 35.6192 13.208 35.6192C15.3046 35.6192 17.2348 36.1064 18.9985 37.0807C20.7621 38.0428 22.2236 39.3316 23.383 40.9473L19.35 43.1118C18.6223 42.2114 17.7158 41.4899 16.6305 40.9473C15.5575 40.4046 14.4166 40.1333 13.208 40.1333C12.0733 40.1333 11.0065 40.3676 10.0075 40.8363C9.00848 41.2926 8.13281 41.9339 7.38048 42.7603C6.62815 43.5743 6.04231 44.5239 5.62298 45.6092C5.20365 46.6822 4.99398 47.8293 4.99398 49.0503C4.99398 50.2836 5.20365 51.4368 5.62298 52.5098C6.05465 53.5828 6.64665 54.5324 7.39898 55.3587C8.15131 56.1727 9.02081 56.8141 10.0075 57.2827C11.0065 57.7391 12.0733 57.9673 13.208 57.9673C14.4413 57.9673 15.5883 57.6959 16.649 57.1533C17.722 56.5983 18.6223 55.8706 19.35 54.9702L23.383 57.1533C22.2236 58.7566 20.7621 60.0454 18.9985 61.0197C17.2348 61.9941 15.3046 62.4813 13.208 62.4813Z" fill="white"/>
<path d="M26.7482 62.0003L26.7297 43.5003H31.2437L31.2622 45.1467C31.8912 44.4807 32.6436 43.9566 33.5192 43.5742C34.3949 43.1796 35.3384 42.9823 36.3497 42.9823C37.0281 42.9823 37.7064 43.0809 38.3847 43.2782L36.6087 47.8293C36.1401 47.6443 35.6714 47.5518 35.2027 47.5518C34.4751 47.5518 33.8091 47.7306 33.2047 48.0882C32.6127 48.4336 32.1379 48.9084 31.7802 49.5127C31.4349 50.1047 31.2622 50.7646 31.2622 51.4922V62.0003H26.7482Z" fill="white"/>
<path d="M47.733 62.4813C46.031 62.4813 44.477 62.0434 43.071 61.1678C41.6774 60.2921 40.5612 59.1143 39.7225 57.6343C38.8962 56.1543 38.483 54.5201 38.483 52.7318C38.483 51.3874 38.7235 50.1294 39.2045 48.9577C39.6855 47.7737 40.3454 46.7378 41.184 45.8498C42.035 44.9494 43.0217 44.2464 44.144 43.7407C45.2664 43.2351 46.4627 42.9823 47.733 42.9823C49.176 42.9823 50.4957 43.2906 51.692 43.9072C52.9007 44.5116 53.9244 45.3441 54.763 46.4048C55.6017 47.4654 56.2122 48.6741 56.5945 50.0308C56.9769 51.3874 57.0632 52.8058 56.8535 54.2858H43.33C43.5027 54.9764 43.7864 55.5993 44.181 56.1543C44.5757 56.6969 45.0752 57.1348 45.6795 57.4678C46.2839 57.7884 46.9684 57.9549 47.733 57.9673C48.5224 57.9796 49.2377 57.7946 49.879 57.4123C50.5327 57.0176 51.0754 56.4873 51.507 55.8213L56.1135 56.8942C55.3612 58.5346 54.2389 59.8789 52.7465 60.9272C51.2542 61.9632 49.583 62.4813 47.733 62.4813ZM43.182 50.9002H52.284C52.1484 50.1602 51.8585 49.4943 51.4145 48.9023C50.9829 48.2979 50.4464 47.8169 49.805 47.4593C49.1637 47.1016 48.473 46.9227 47.733 46.9227C46.993 46.9227 46.3085 47.1016 45.6795 47.4593C45.0505 47.8046 44.514 48.2794 44.07 48.8838C43.6384 49.4758 43.3424 50.1479 43.182 50.9002Z" fill="white"/>
<path d="M73.8848 43.5003H78.3988V62.0003H73.8848L73.6813 59.7062C73.1756 60.5326 72.5035 61.2048 71.6648 61.7228C70.8385 62.2284 69.858 62.4813 68.7233 62.4813C67.3543 62.4813 66.0716 62.2223 64.8753 61.7043C63.679 61.1863 62.6245 60.4709 61.7118 59.5583C60.8115 58.6456 60.1023 57.5911 59.5843 56.3947C59.0786 55.1984 58.8258 53.9157 58.8258 52.5467C58.8258 51.2271 59.0663 49.9876 59.5473 48.8283C60.0406 47.6689 60.7251 46.6514 61.6008 45.7757C62.4765 44.9001 63.4878 44.2156 64.6348 43.7222C65.7818 43.2289 67.0151 42.9823 68.3348 42.9823C69.5558 42.9823 70.6473 43.2536 71.6093 43.7962C72.5836 44.3389 73.41 45.0296 74.0883 45.8682L73.8848 43.5003ZM68.6123 58.1338C69.5743 58.1338 70.4253 57.8933 71.1653 57.4123C71.9053 56.9313 72.485 56.2837 72.9043 55.4697C73.3236 54.6434 73.5333 53.7369 73.5333 52.7503C73.5333 51.7513 73.3236 50.8448 72.9043 50.0308C72.485 49.2044 71.8991 48.5508 71.1468 48.0698C70.4068 47.5888 69.562 47.3483 68.6123 47.3483C67.6626 47.3483 66.7931 47.5949 66.0038 48.0882C65.2268 48.5692 64.604 49.2167 64.1353 50.0308C63.679 50.8448 63.4508 51.7513 63.4508 52.7503C63.4508 53.7493 63.6851 54.6557 64.1538 55.4697C64.6225 56.2837 65.2453 56.9313 66.0223 57.4123C66.8116 57.8933 67.675 58.1338 68.6123 58.1338Z" fill="white"/>
<path d="M92.0012 48.0142H88.4122V62.0003H83.8982V48.0142H81.1602V43.5003H83.8982V37.6912H88.4122V43.5003H92.0012V48.0142Z" fill="white"/>
<path d="M95.0569 43.5003H99.5709V62.0003H95.0569V43.5003ZM97.3509 41.1138C96.6849 41.1138 96.1237 40.8979 95.6674 40.4663C95.2111 40.0223 94.9829 39.4673 94.9829 38.8013C94.9829 38.1476 95.2111 37.5988 95.6674 37.1548C96.1237 36.7108 96.6787 36.4888 97.3324 36.4888C97.9861 36.4888 98.5349 36.7108 98.9789 37.1548C99.4352 37.5988 99.6634 38.1476 99.6634 38.8013C99.6634 39.4673 99.4414 40.0223 98.9974 40.4663C98.5534 40.8979 98.0046 41.1138 97.3509 41.1138Z" fill="white"/>
<path d="M114.891 62.0003H109.064L102.33 43.4818H107.14L111.987 56.8018L116.815 43.4818H121.625L114.891 62.0003Z" fill="white"/>
<path d="M124.361 43.5003H128.875V62.0003H124.361V43.5003ZM126.655 41.1138C125.989 41.1138 125.427 40.8979 124.971 40.4663C124.515 40.0223 124.287 39.4673 124.287 38.8013C124.287 38.1476 124.515 37.5988 124.971 37.1548C125.427 36.7108 125.982 36.4888 126.636 36.4888C127.29 36.4888 127.839 36.7108 128.283 37.1548C128.739 37.5988 128.967 38.1476 128.967 38.8013C128.967 39.4673 128.745 40.0223 128.301 40.4663C127.857 40.8979 127.308 41.1138 126.655 41.1138Z" fill="white"/>
<path d="M143.238 48.0142H139.649V62.0003H135.135V48.0142H132.397V43.5003H135.135V37.6912H139.649V43.5003H143.238V48.0142Z" fill="white"/>
<path d="M158.551 43.5003H163.342L153.223 71.2503H148.431L151.78 62.0003L145.12 43.5003H150.059L154.037 55.8213L158.551 43.5003Z" fill="white"/>
<path d="M167.052 62.4813C166.411 62.4813 165.862 62.2593 165.406 61.8153C164.962 61.3589 164.74 60.8039 164.74 60.1502C164.74 59.5212 164.962 58.9786 165.406 58.5223C165.862 58.0659 166.411 57.8377 167.052 57.8377C167.694 57.8377 168.242 58.0659 168.699 58.5223C169.155 58.9786 169.383 59.5212 169.383 60.1502C169.383 60.8039 169.155 61.3589 168.699 61.8153C168.242 62.2593 167.694 62.4813 167.052 62.4813Z" fill="white"/>
<path d="M1.77498 97.0003V71.1003H6.28898V97.0003H1.77498Z" fill="white"/>
<path d="M11.301 97.0003V78.5003H15.815V80.1468C16.444 79.4808 17.1964 78.9566 18.072 78.5742C18.9477 78.1796 19.8912 77.9823 20.9025 77.9823C22.1852 77.9823 23.363 78.2844 24.436 78.8887C25.5214 79.4931 26.3847 80.3009 27.026 81.3122C27.6797 80.3009 28.543 79.4931 29.616 78.8887C30.689 78.2844 31.8669 77.9823 33.1495 77.9823C34.5062 77.9823 35.7334 78.3152 36.831 78.9812C37.941 79.6349 38.8229 80.5167 39.4765 81.6267C40.1425 82.7244 40.4755 83.9516 40.4755 85.3083V97.0003H35.9615V86.5107C35.9615 85.7954 35.7827 85.1418 35.425 84.5498C35.0797 83.9454 34.611 83.4644 34.019 83.1068C33.4394 82.7368 32.7857 82.5518 32.058 82.5518C31.3304 82.5518 30.6705 82.7306 30.0785 83.0882C29.4989 83.4336 29.0302 83.9022 28.6725 84.4942C28.3149 85.0862 28.136 85.7584 28.136 86.5107V97.0003H23.622V86.5107C23.622 85.7584 23.4494 85.0862 23.104 84.4942C22.7587 83.9022 22.29 83.4336 21.698 83.0882C21.106 82.7306 20.4462 82.5518 19.7185 82.5518C19.0032 82.5518 18.3495 82.7368 17.7575 83.1068C17.1655 83.4644 16.6907 83.9454 16.333 84.5498C15.9877 85.1418 15.815 85.7954 15.815 86.5107V97.0003H11.301Z" fill="white"/>
<path d="M48.6959 106.25H44.1819V78.5003H48.6959V80.8497C49.3002 80.0111 50.0402 79.3328 50.9159 78.8148C51.8039 78.2844 52.8399 78.0192 54.0239 78.0192C55.3806 78.0192 56.6447 78.2721 57.8164 78.7777C58.9881 79.2834 60.0179 79.9864 60.9059 80.8867C61.8062 81.7747 62.5031 82.8046 62.9964 83.9762C63.5021 85.1479 63.7549 86.4059 63.7549 87.7503C63.7549 89.0946 63.5021 90.3587 62.9964 91.5427C62.5031 92.7267 61.8062 93.7689 60.9059 94.6693C60.0179 95.5573 58.9881 96.2541 57.8164 96.7598C56.6447 97.2654 55.3806 97.5182 54.0239 97.5182C52.8399 97.5182 51.8039 97.2592 50.9159 96.7412C50.0402 96.2109 49.3002 95.5264 48.6959 94.6878V106.25ZM53.9684 82.3668C53.0311 82.3668 52.1924 82.6134 51.4524 83.1068C50.7124 83.5878 50.1327 84.2352 49.7134 85.0492C49.2941 85.8632 49.0844 86.7636 49.0844 87.7503C49.0844 88.7369 49.2941 89.6434 49.7134 90.4697C50.1327 91.2837 50.7124 91.9374 51.4524 92.4307C52.1924 92.9117 53.0311 93.1523 53.9684 93.1523C54.9181 93.1523 55.7876 92.9117 56.5769 92.4307C57.3662 91.9497 57.9952 91.3023 58.4639 90.4883C58.9326 89.6619 59.1669 88.7493 59.1669 87.7503C59.1669 86.7636 58.9326 85.8632 58.4639 85.0492C57.9952 84.2352 57.3662 83.5878 56.5769 83.1068C55.7999 82.6134 54.9304 82.3668 53.9684 82.3668Z" fill="white"/>
<path d="M80.6778 78.5003H85.1918V97.0003H80.6778L80.4743 94.7063C79.9686 95.5326 79.2964 96.2047 78.4578 96.7227C77.6314 97.2284 76.6509 97.4812 75.5163 97.4812C74.1473 97.4812 72.8646 97.2223 71.6683 96.7043C70.4719 96.1863 69.4174 95.4709 68.5048 94.5583C67.6044 93.6456 66.8953 92.5911 66.3773 91.3948C65.8716 90.1984 65.6188 88.9158 65.6188 87.5468C65.6188 86.2271 65.8593 84.9876 66.3403 83.8282C66.8336 82.6689 67.5181 81.6514 68.3938 80.7757C69.2694 79.9001 70.2808 79.2156 71.4278 78.7223C72.5748 78.2289 73.8081 77.9823 75.1278 77.9823C76.3488 77.9823 77.4403 78.2536 78.4023 78.7962C79.3766 79.3389 80.2029 80.0296 80.8813 80.8682L80.6778 78.5003ZM75.4053 93.1338C76.3673 93.1338 77.2183 92.8932 77.9583 92.4122C78.6983 91.9312 79.2779 91.2837 79.6973 90.4697C80.1166 89.6434 80.3263 88.7369 80.3263 87.7503C80.3263 86.7513 80.1166 85.8447 79.6973 85.0307C79.2779 84.2044 78.6921 83.5507 77.9398 83.0697C77.1998 82.5887 76.3549 82.3483 75.4053 82.3483C74.4556 82.3483 73.5861 82.5949 72.7968 83.0882C72.0198 83.5692 71.3969 84.2167 70.9283 85.0307C70.4719 85.8447 70.2438 86.7513 70.2438 87.7503C70.2438 88.7493 70.4781 89.6557 70.9468 90.4697C71.4154 91.2837 72.0383 91.9312 72.8153 92.4122C73.6046 92.8932 74.4679 93.1338 75.4053 93.1338Z" fill="white"/>
<path d="M99.9869 91.4317L104.057 93.6332C103.206 94.7926 102.139 95.7238 100.856 96.4268C99.5737 97.1298 98.1739 97.4812 96.6569 97.4812C94.9549 97.4812 93.4009 97.0434 91.9949 96.1677C90.6012 95.2921 89.485 94.1204 88.6464 92.6527C87.82 91.1727 87.4069 89.5386 87.4069 87.7503C87.4069 86.3936 87.6474 85.1294 88.1284 83.9577C88.6094 82.7737 89.2692 81.7377 90.1079 80.8497C90.9589 79.9494 91.9455 79.2464 93.0679 78.7408C94.1902 78.2351 95.3865 77.9823 96.6569 77.9823C98.1739 77.9823 99.5737 78.3338 100.856 79.0368C102.139 79.7398 103.206 80.6832 104.057 81.8672L99.9869 84.0502C99.5552 83.5569 99.0434 83.1746 98.4514 82.9033C97.8717 82.6319 97.2735 82.4962 96.6569 82.4962C95.7689 82.4962 94.9672 82.7429 94.2519 83.2363C93.5365 83.7173 92.9692 84.3586 92.5499 85.1602C92.1305 85.9496 91.9209 86.8129 91.9209 87.7503C91.9209 88.6753 92.1305 89.5386 92.5499 90.3402C92.9692 91.1296 93.5365 91.7648 94.2519 92.2458C94.9672 92.7268 95.7689 92.9672 96.6569 92.9672C97.2982 92.9672 97.9087 92.8316 98.4884 92.5602C99.068 92.2766 99.5675 91.9004 99.9869 91.4317Z" fill="white"/>
<path d="M117.294 83.0143H113.705V97.0003H109.191V83.0143H106.453V78.5003H109.191V72.6913H113.705V78.5003H117.294V83.0143Z" fill="white"/>
<path d="M121.85 97.4812C121.209 97.4812 120.66 97.2593 120.204 96.8153C119.76 96.3589 119.538 95.8039 119.538 95.1503C119.538 94.5213 119.76 93.9786 120.204 93.5222C120.66 93.0659 121.209 92.8378 121.85 92.8378C122.491 92.8378 123.04 93.0659 123.497 93.5222C123.953 93.9786 124.181 94.5213 124.181 95.1503C124.181 95.8039 123.953 96.3589 123.497 96.8153C123.04 97.2593 122.491 97.4812 121.85 97.4812Z" fill="white"/>
</svg>
